# xmcd CD database generated by RipIT
#
# Track frame offsets:
# 150
# 13559
# 26898
# 40820
# 55061
# 68089
# 81036
# 95639
# 107972
# 121368
# 133342
# 146003
# 157562
# 171836
#
# Disc length: 2470 seconds
#
# Revision: 1
# Processed by: cddbd v1.5.2PL0 Copyright (c) Steve Scherf et al.
# Submitted via: RipIT 3.7.0-beta20081019 www.suwald.com/ripit/ripit.html on 2009-01-04 at 09:12
#
DISCID=ba09a40e
DTITLE=Carter Family - The Best Of The Carter Family
DYEAR=2005
DGENRE=Bluegrass
TTITLE0=My Dixie Darling
TTITLE1=Are You Lonesome Tonight
TTITLE2=The Wayworn Traveler
TTITLE3=When Silver Threads Are Gold Again
TTITLE4=No Depression
TTITLE5=You Better Let That Liar Alone
TTITLE6=In The Shadow Of Clinch Mountain
TTITLE7=Hello Stranger
TTITLE8=Honey In The Rock
TTITLE9=Bring Back My Boy
TTITLE10=Cuban Soldier
TTITLE11=Little Joe
TTITLE12=You Are My Flower
TTITLE13=Coal Miner's Blues
EXTD=
EXTT0=
EXTT1=
EXTT2=
EXTT3=
EXTT4=
EXTT5=
EXTT6=
EXTT7=
EXTT8=
EXTT9=
EXTT10=
EXTT11=
EXTT12=
EXTT13=
PLAYORDER=
